<svg id="Capa_1" enable-background="new 0 0 512 512" height="512" viewBox="0 0 512 512" width="512" xmlns="http://www.w3.org/2000/svg"><g><g><path d="m512 178.094v-39.594c0-14.696-18.762-20.863-27.481-9.032l-35.836 48.627 37.158 9z" fill="#c1b455"/><path d="m281.034 142.381c-4.276 0-7.742-3.466-7.742-7.742v-75.48c0-4.276 3.466-7.742 7.742-7.742s7.742 3.466 7.742 7.742v75.48c0 4.276-3.466 7.742-7.742 7.742z" fill="#05303d"/><path d="m465.508 87.597h-368.947c-4.276 0-7.742-3.466-7.742-7.742s3.466-7.742 7.742-7.742h368.948c4.276 0 7.742 3.466 7.742 7.742s-3.467 7.742-7.743 7.742z" fill="#08475e"/><path d="m329.164 428.506c-4.202-.786-8.243 1.928-9.036 6.132-.37 1.746-2.733 10.461-12.887 10.461h-57.764v-57.755c0-4.276-3.466-7.742-7.742-7.742s-7.742 3.466-7.742 7.742v57.755h-110.416v-57.755c0-4.276-3.466-7.742-7.742-7.742s-7.742 3.466-7.742 7.742v57.755h-62.362c-10.155 0-12.517-8.715-12.872-10.381-.794-4.202-4.851-6.958-9.044-6.171-4.202.793-6.965 4.843-6.171 9.044 1.502 7.953 9.306 22.992 28.088 22.992h261.51c18.783 0 26.585-15.039 28.087-22.992.792-4.202-1.964-8.292-6.165-9.085z" fill="#08475e"/><path d="m320.332 142.582v-7.083c0-5.606-4.544-10.15-10.15-10.15h-58.298c-5.606 0-10.15 4.544-10.15 10.15v7.083l39.299 9z" fill="#7c7f2a"/><path d="m241.735 161.163 39.299 9 39.299-9v-18.581h-78.598z" fill="#6a6925"/><path d="m434.989 196.675 41.075 9 35.936-9v-18.581h-63.317z" fill="#b2a34b"/><path d="m346.168 178.094v-6.782c0-5.606-4.544-10.15-10.15-10.15h-109.968c-5.606 0-10.15 4.544-10.15 10.15v6.782l65.134 9z" fill="#c1b455"/><path d="m215.9 196.675 65.134 9 65.134-9v-18.581h-130.268z" fill="#b2a34b"/><path d="m1.12 348.874c0 25.065 19.695 39.007 38.201 39.007h221.252c26.292 0 50.79-22.331 65.068-44.408l.025.002 52.43-81.068-.041.023 104.071-9.49c17.927-3.746 29.874-22.746 29.874-39.563v-16.702h-296.1c-32.495 0-62.961 14.989-82.796 40.254l15.13 30.969-51.674 25.337-71.694 28.339c-12.058 4.766-20.788 15.065-23.755 27.299.003 0 .006.001.009.001z" fill="#7c7f2a"/><path d="m275.535 283.654c5.606 0 10.15-9 10.15-19.15v-17.423c0-5.606-4.544-10.15-10.15-10.15h-63.401l-7.742 9-7.742-9h-63.544c-2.1 2.675-4.083 5.463-5.935 8.363l-18.747 29.361 18.415 9h148.696z" fill="#acceff"/><g fill="#6a6925"><path d="m325.641 343.473c-14.278 22.077-38.776 35.408-65.068 35.408h-221.252c-18.506 0-34.017-12.788-38.201-30.007-.726 2.992-1.12 6.096-1.12 9.267 0 21.716 17.604 39.321 39.321 39.321h209.261c26.292 0 50.79-13.331 65.068-35.408l12.016-18.579z"/><path d="m481.551 243.827h-88.656c-1.751 0-3.383.888-4.334 2.358l-10.507 16.245.041-.023h103.456c16.817 0 30.449-13.633 30.449-30.45v-18.581c0 16.818-13.633 30.451-30.449 30.451z"/></g><g fill="#8bb9ff"><path d="m275.535 274.654h-63.401l-7.742 9 7.742 9.581h63.401c5.606 0 10.15-4.544 10.15-10.15v-18.581c0 5.606-4.544 10.15-10.15 10.15z"/><path d="m196.65 274.654h-88.226l-11.864 18.581h100.09l7.742-9.58z"/></g><path d="m196.65 274.655 7.742 9 7.742-9v-37.724h-15.484z" fill="#0a789b"/><path d="m196.65 274.655h15.484v18.581h-15.484z" fill="#0a617d"/>
</g>
</g>
</svg>
